<mxfile host="app.diagrams.net" modified="2024-05-14T09:54:34.830Z" agent="Mozilla/5.0 (Windows NT 10.0; Win64; x64) AppleWebKit/537.36 (KHTML, like Gecko) Chrome/124.0.0.0 Safari/537.36" version="24.4.0" etag="H57eOsYoVYAA9ZQh3ygW" type="github">
  <diagram name="第 1 页" id="p2xRfE34d_B58pbquu8u">
    <mxGraphModel>
      <root>
        <mxCell id="0" />
        <mxCell id="1" parent="0" />
      </root>
    </mxGraphModel>
  </diagram>
</mxfile>
